<?xml version="1.0" encoding="UTF-8"?>
<svg id="Layer_1" xmlns="http://www.w3.org/2000/svg" version="1.1" viewBox="0 0 1200 330">
  <!-- Generator: Adobe Illustrator 30.0.0, SVG Export Plug-In . SVG Version: 2.1.1 Build 123)  -->
  <defs>
    <style>
      .st0 {
        fill: #fff;
      }

      .st1 {
        fill: #264926;
      }
    </style>
  </defs>
  <rect class="st1" x="0" y="0" width="1200" height="320"/>
  <path class="st0" d="M1246.29,337.72c-1.51-7.93-4.88-11.82-7.76-13.91-5.06-3.67-8.62-1.79-15.53-6.59-4.39-3.05-4.51-4.89-9.32-7.32-2.07-1.04-5.51-2.79-10.09-2.93-6.36-.2-8.42,2.91-12.42,1.46-2.53-.91-4.78-3.27-5.43-5.86-1.57-6.25,7.06-10.48,5.43-14.65-1.89-4.83-14.96-2.78-16.3-7.32-.65-2.19,2.24-3.19,3.88-8.06,1.76-5.24,1.12-12.12-2.33-13.91-2.26-1.17-3.67.91-8.54.73-4.53-.16-10.44-2.23-11.64-5.86-1.02-3.08,2.24-4.58,1.55-8.06-1.07-5.36-10.31-9.14-12.42-7.32-1.94,1.67,2.14,8.21.78,8.79-1.23.52-3.11-3.92-8.28-5.13-2.38-.56-3.43.03-4.99-1.02-1.6-1.08-6.81,8.1-9.43,7.63-14.36-2.56-1.25,7.89-6.21,10.62-4.68,2.57-6.52,17.04-12.33,15.81-6.35-1.34-.02-7.05-2.42-11.42-.61-1.11-10.25.72-11.66-.93,5.71-.98,2.55,1.75-3.73-2.95-1.96-1.47-.54-3.97-1.84-5.69-1.79-2.38-4.48-2.69-7.12-2.45-3.09.27.8-1.28-.69-5.73-1.25-3.71-9.21,1.05-12.61,2.2-8.97,3.01-4.08,2.68-6.21-5.86-1.06-4.23-3.21-9.94-7.96-6.59-3,2.12-14.69,5.63-17.97,7.01-2.35.99.6,1.28-.66-1.15-.99-1.91-5.77-1.06-9.12.37-2.82,1.2-5.7-1.2-5.69,2.09,0,1.73.55,3.91-1.57,4.89-.89.42-2.36.14-3.39-.24-.97-.36-.57-1.4-.66-2.37-1.06-11.15-8.09-5.47-8.87-6.75-2.36-3.9-3.78-11.06,1.57-8.94,3.26,1.3,6.58,2.79,10.37,2.64,6.62-.27,7.56-1.79,4.24-7.27-.58-.96-1.17-1.92-2.32-3.82,4.53.33,8.19.76,11.86.82,5.72.1,8.11-2.69,5.34-7.06-3.02-4.75-.13-4.6,3.31-5.12,2.83-.43,5.53-1.55,8.35-2.07,7.27-1.35,5.16-7.41,6.66-11.63.45-1.25-.45-2.58-1.81-2.93-3.45-.88-7.03-1.12-9.5-4.31-1.15-1.49-3.12.08-4.52.88-2.64,1.51-5.21,3.14-7.92,4.78-.43-.91-.84-1.48-.99-2.12-1.78-7.6-2.68-8.08-10.29-5.22-2.61.98-4.7,3.62-7.47-.77-2.38-3.76-2.24-5.4,1.79-7.1.72-.3,1.34-1.35,1.54-2.15,1.26-5.17-10.05-15.27-15.26-13.27-4.04,1.55-7.02,2-11.17-.35-5.05-2.87-9.47.98-9.13,7.28.11,1.99,2.29,4.72-2.06,4.98-2.39.14-4.83,1.48-5.76-2.74-1.07-4.82-5.53-1.5-9.55-1.83,2.89-4.23,1.81-8.22-2.62-9.78-6.09-2.13-12.79-4.43-19.13-1.15-3.37,1.74-.95,4.85.08,7.32.65,1.56,3.03,3.46.8,4.72-2.91,1.64-6.56,1-9.91.8-2.85-.17-1.72-2.11-1.5-3.55.77-5.06-5.87-4.66-6.51-7.14-.78-2.99,3.01-6.7-.36-10.13-.33-.33-.7-.63-.98-1-1.48-1.94-5.43-2.77-4.59-5.5.86-2.81,4.54-1.89,7.03-2.16,5.13-.57,8.01-4.07,8.71-7.89.84-4.57-3.86-4.66-7.48-5.29-3.29-.57-.17-1.53-.2-5.44-.12-13.42,5.85-16.36-8.35-12.82-2.89.72-7.84,9.13-9.7,5.68-2.01-3.71-5.77-8.89-4.27-10.07,4.83-3.81-4.25-8.27-9.7-14.65-5.16-6.04-4.3,15.2-8.73,21.79-1.14,1.69-.71,22.97-3.11,21.79-1.74-.86-8.85-.26-7.83-2.45,1.64-3.53,2.31-7.21-2.27-8.49-4.7-1.31-10.61-3.78-14.8-6.91-1.29-.97-2.53-2.01-4.52-3.59,4.46-1.59,8.7-.34,12.31-2.14,1.99-.99,5.07-.21,5.81-3.15.75-2.97-1.72-4.57-3.49-6.3-1.12-1.09-2.73-1.72-4.07-2.53.39-2.18,2.44-2.24,3.76-3.09,1.78-1.15,2.74-2.67,2.23-4.63-.46-1.77-2.19-2.36-3.9-2.57-4.91-.6-8.67-1.75-11.15-6.89-2.13-4.42-6.81-1.16-9.18.79-4.97,4.08-8.01,4.55-12.31-1.12-3.83-5.05-9.61-4.65-12.32,1-1.13,2.35-2.43,4.45-4.51,6.1-2.54,2.02-4.92,4.91-7.36-.27-.76-1.62-2.99-2.23-5.03-2.24-3.27-.02-5.87-.49-7.52-3.94-1.36-2.84-13.6-4.21-16.32-2.31-3.27,2.28-4.06,5.18-1.32,8.15,1.36,1.47,3.53,2.28,4.98,4.18-8.56,1.6-11.71,6.38-11.98,14.19-4.17-3.56-7.43-7.06-12.88-4.96-1.44.55-1.94-.93-1.81-2.16.62-5.9-3.39-6.09-7.89-5.83-2.15.13-4.33-.06-6.48.06-4.08.22-6.44-2.73-7.9-5.17-1.91-3.19,2.67-2.69,4.2-3.99,3.83-3.26,3.09-7.09-2.2-8.7-3.01-.91-5.5-1.44-7.35-4.54-1.94-3.23-9.84-1.98-12.54,1.53-.79,1.03-.65,2.74-2.53,2.96q-3.57-9-13.53-7.95c.12-.64.02-1.38.36-1.73,9.07-9.08,8.68-10.52-4.42-13.97-2.69-.71-3.27-1.3-2.78-4.14,1.37-7.98-3.63-11.48-11.82-9.12-2.22.64-3.48-.3-5.13-1-2.19-.93-4.35-2-6.64-2.62-2.5-.67-4.79.18-6.48,2.07-1.7,1.9.07,3.34.86,4.92.65,1.31,2.84,2.48,1.12,4.11-1.66,1.57-3.07-.19-4.42-.94-5.07-2.81-8.99-.94-9.84,3.77-.78,4.28-3.34,2.79-5.62,3.09-2.72.36-3.52-.39-3.64-3.28-.16-3.73-2.15-6.67-6.81-7.65-3.83-.8-4.14-6.01-9.08-6.75-4.07-.61-7.91-3.25-10.55,1.61-2.32,4.26-8.09,5.99-9.35,2.28-1.03-3.02-3.67-4.73-6.76-5.7-1.96-.62-1.86-2.52-2.9-3.72-4.55-5.27-9.59-4.63-12.02,1.78-1,2.64-3.38,1.79-3.65.86-2.22-7.55-7.87-4.08-13.15-3.37.76-2.59,1.55-4.63,1.93-6.74.66-3.67-.9-6.23-4.86-7.18-1.62-.39-3.87-.07-4.83-1-5.34-5.17-8.63-4.98-10.84,2.51-.74,2.5-3.84.49-5.83.66-3.29.28-6.65,1.05-4.25,4.76,3.86,5.97-1.03,4.95-4.22,5.48-2.64.43-6.15-2.33-7.85,1.07-1.77,3.54-6.28-3.5-14.73-.67-2,.67-3.18,0-4.61-.79-2.8-1.54-5.84-2.03-9.05-1.91-2.39.09-5.58,2.11-4.39,3.04,5.3,4.15-9.9,11.42,2.64,13.74,2.28.42-2.55,5.61-7,6.48-3.85.75-7.94.96-7.72,6.13.09,2.11-6.11,2.33-5.83.95,1.76-8.72-5.22-4.91-8.79-5.43-1.07-2.2.87-3.14,1.39-4.54,2.29-6.18-.86-9.25-7.45-10.29-7.88-1.24-12.41,4.93-19,6.12-1.74.32-2.78,2.12-2.67,3.89.23,3.65-3.23,4.1-6.03,6-.19-4.39-.86-7.93-6.15-8.93-5.6-1.05-8.7,1.24-9.27,5.9-.56,4.59-3.77,3.96-5.8,2.76-3.3-1.95-6.37-4.24-9.42-.68-3.18,3.71-.67,11.39-2.05,11.57-2.16.27-4.52.23-4.89,3-.32,2.36,1.81,7.86-6.49,6.62-.97-.14-1.58-.14-2.25-1.08-4.43-6.32-7.33-6.96-13.53-1.99-1.66,1.33-4.16,1.21-5.69-.27-3.87-3.75-9.9-4.35-13.06-10-2.21-3.94-6.35,1.61-10.2,2.79-1.42-6.75-5.72-8.91-12.57-7.1-2.73.72-7.15.25-7.23,3.17-.09,3.18-2.28,7.43,2.93,10.07,4.07,2.06,1.65,3.14-1.55,4.3-10.91,3.95-12.7,4.76-16.85,6.63-3.25,1.47-6.73,3.28-8.79,5.49-3.74,4.02.47,10.31,2.47,13.73-3.8,1.36-12.89-.06-19.22-1.37-5.03-1.04-13.37,5.94-8.44,12.51-2.12,2.61-8.17.86-7.86,6.37.39,6.71,7.79,1.98,9.93,6.17-.08,2.19-2.77,1.51-4.22,2.32-2.31,1.3,4.49,9.03,7.57,9.97.89.27,2.42,1.45,2.99,4.35.36,1.82-1.07,3.87-2.95,5.2-2.73,1.94-5.83,2.39-8.91,1.5-2.7-.78-1.23-3-1.05-4.68.37-3.44-4.66-2.51-8.49-3.91-3.9-1.42-.13-1.41-2.31-.02-1.24.79-.98,3.58-3.27,2.94-2.82-.78-1.2-3.13-.98-4.66,1.32-9.14.79-9.6-9.21-7.34-2.29.52-4.63.85-7.6,1.39-.03-3.93,3.34-8.14-1.19-10.87-3.27-1.97-7-2-10.88-2.34-6.9-.6-1.09,6.94-5.58,6.67-3.67-.22-7.7-2.68-10.17,1.84-1.75,3.2-4.14,2.27-6.95,1.64.96-2.27,2.09-4.28,2.67-6.44,1.74-6.44-1.42-9.75-8.17-8.85-4.17.56-8.28,1.72-9.5-4.43-.59-2.95-4.25-5.09-7.45-3.14-3.29,2-10.52,1.28-8.29,8.01,1.05,3.18.46,4.28-2.8,4.19-4.15-.11-5.14,2.42-4.43,5.35,1.62,6.69-1.96,7.93-7.79,7.41-1.16-.1-2.41.13-3.56.43-6.01,1.54-6.86,3.76-3.13,8.61,1.29,1.67,11.27,4.48,11.18,6.73,3.86,2.53,2.15,10.06,2.51,12.71.3,2.25-2.36,3.64-4.03,2.11-4.73-4.34-13.44-9.74-12.21-11.8,0,0-10.93-6.48-18.59-8.11-4.83-1.02-8.36-1.71-11.56,1.75-3.89,4.21.23,6.91,2.87,9.54-1.29,2.87-6.89,1.75-5.7,6.25,1.13,4.3,5.53,3.57,9.05,4.78-2.04,3.03-4.55,3.58-7.64,2.52-1.8-.62-3.71-.68-5.5-.04-4.26,1.51-9.74,2.4-9.29,8.19.4,5.09,4.78,6.29,9.41,6.72,2.91.27,6.12-.02,3.93,4.63-3.36,7.15-.34,11.12,8.23,11.46,1.62.06,3.31-.53,5.28.8-2.52,3.32-6.83,4.69-9.13,8.17-1.35,2.04-2.64-.62-3.72-1.59-7.42-6.67-12.47-5.93-16.73,2.93-1.56,3.24-4.4,2.11-6.69,2.84-3.03.96-7.54-.12-8.29,4.03-.84,4.64,3.94,4.9,7.14,6.31.24,2.93-4.46,4.76-2.08,7.95,2.09,2.8,5.34,1.17,8.06,1.6,3.3.52,6.6,1.01,10.02,1.53-.64,3.31-4.23,8.69-7.41,8.36-4.67-.48-7.52.03-7.41,6.04.07,4.09-3.79-.63-6.34.34-3.64,1.38-1.41-2.3-2.44-3.31-4.34-4.25-9-1.65-13.24-.06-3.75,1.41-5.37,4.53-3.68,8.42.61,1.4,2.65,2.04,2.56,4.3-2.75.28-5.71.09-8.29.94-3.72,1.24-5.74,4.44-5.52,8.01.21,3.49,3.93,3.34,6.66,4.08,4,1.08,8.62-2.82,12.36,1.48-2.13,2.8-5.8,3-8.59,4.61-2.31,1.33-5.11,2.42-4.98,5.28.14,3.16,3.59,3.18,5.91,4.18,1.25.54,2.96.34,3.61,2.16-1.44,2.32-4.4,2.22-6.6,3.31-3.53,1.75-6.37,3.59-4.05,7.89,1.74,3.22-.55,8.87-2.91,6.6-13.08-12.56-15.13-15.95-19.86-10.84-3.14,1.59-4.24,1.26-6.05-1.56-5.29-8.23-16.08-9.39-24.03-2.86-3.27,2.69-2.31,5.17.75,7.29,2.81,1.95,4.41,3.61,1.66,7.13-4.99,6.4-4.33,7.49,3.79,8.85,1.14.19,6.95-.86,8.16-.61-3.43,7.2-13.42,12.67-18.4,7.14-1.48-1.64-4.15-5.82-6.59-5.49-5.72.76-5.27.3-10.96,1.25-4.94.83-14.69,6.75-14.31,11.93"/>
</svg>